# xmcd CD database file
#
# Track frame offsets:
#	150
#	14523
#	28673
#	45587
#	56892
#	71632
#	89395
#	105322
#	125330
#	162177
#	172649
#	186272
#	198950
#	218960
#	241262
#	259152
#	278864
#	298051
#	317201
#	334793
#
# Disc length: 4680 seconds
#
# Revision: 4
# Processed by: cddbd v1.5.1PL0 Copyright (c) Steve Scherf et al.
# Submitted via: CDex 1.51
#
DISCID=24124614
DTITLE=Ω∫¿Æ««±‚ - Ω∫¿Æº”¿∏∑Œ ¡¶7»∏ ¿Ωæ«∞®ªÛ»∏
DYEAR=2004
DGENRE=Jazz
TTITLE0=Jelly Roll Morton - Hyena Stomp
TTITLE1=Randy Sandke - No one knows what it°Øs all about
TTITLE2=Count Basie And The Kansas City 7 - Trey of Hearts
TTITLE3=Guy Lombardo and His Royal Canadians - Humoresque
TTITLE4=Django Reinhardt - Minor Swing
TTITLE5=Angrlo Debarre and Ludovic Beier - Venez Donc Chez Moi
TTITLE6=Ben Webster Quartet - Honeysuckle Rose
TTITLE7=Barney Kessel - Wail Street
TTITLE8=Ella Fitzgerald - How High The Moon
TTITLE9=Red Prysock - That's The Groovy Thing
TTITLE10=Charlie Parker - Confirmation
TTITLE11=Charlie Parker - Tico Tico
TTITLE12=Miles Davis - When I Fall In Love
TTITLE13=Gerry Mulligan - Night Lights
TTITLE14=Toots Thielemans - What Are You Doing the Rest of Your Life?
TTITLE15=Sonny Clark Trio - I Didn't Know What Time It Was
TTITLE16=Lisa Ekdahl - Rivers of love
TTITLE17=Ry Cooder and Manuel Galban - La Luna En Tu Mirada
TTITLE18=Marc Johnson - Dingy-Dong Day
TTITLE19=Charlie Haden and Pat Metheny - Cinema Paradiso (Love Theme)
EXTD=YEAR: 2004
EXTT0=
EXTT1=
EXTT2=
EXTT3=
EXTT4=
EXTT5=
EXTT6=
EXTT7=
EXTT8=
EXTT9=
EXTT10=
EXTT11=
EXTT12=
EXTT13=
EXTT14=
EXTT15=
EXTT16=
EXTT17=
EXTT18=
EXTT19=
PLAYORDER=
